<svg width="6" height="6" viewBox="0 0 6 6" fill="none" xmlns="http://www.w3.org/2000/svg">
<path d="M4.23435 1.9993e-06C4.19943 -0.000133744 4.16483 0.00664402 4.13254 0.0199445C4.10025 0.033245 4.07093 0.0528051 4.04624 0.0774971C4.02154 0.102189 4.00198 0.131524 3.98868 0.163812C3.97538 0.196099 3.96862 0.2307 3.96875 0.265619C3.96903 0.33579 3.99716 0.402978 4.04697 0.452403C4.09678 0.501828 4.16418 0.529442 4.23435 0.529169H4.91803L2.45874 2.98793C2.43402 3.01252 2.41442 3.04175 2.40103 3.07394C2.38765 3.10613 2.38077 3.14065 2.38077 3.17552C2.38077 3.21038 2.38765 3.2449 2.40103 3.2771C2.41442 3.30929 2.43402 3.33852 2.45874 3.3631C2.48333 3.38782 2.51258 3.40744 2.54477 3.42082C2.57696 3.43421 2.61147 3.4411 2.64633 3.4411C2.6812 3.4411 2.71573 3.43421 2.74793 3.42082C2.78012 3.40744 2.80934 3.38782 2.83393 3.3631L5.2927 0.902789V1.5875C5.29283 1.65749 5.32069 1.72458 5.37018 1.77407C5.41967 1.82356 5.48677 1.85143 5.55676 1.85157C5.59155 1.8517 5.62602 1.84498 5.65821 1.83178C5.69039 1.81857 5.71965 1.79915 5.74433 1.77462C5.769 1.7501 5.78861 1.72094 5.802 1.68883C5.8154 1.65673 5.82232 1.62229 5.82239 1.5875V0.265619C5.82252 0.2307 5.81573 0.1961 5.80243 0.163814C5.78913 0.131527 5.76957 0.102193 5.74487 0.0775014C5.72018 0.05281 5.69086 0.03325 5.65857 0.0199488C5.62628 0.00664765 5.59168 -0.000131544 5.55676 1.9993e-06H4.23435ZM0.265596 0.529169C0.230678 0.529037 0.196075 0.535817 0.16379 0.549118C0.131504 0.56242 0.102177 0.58198 0.0774861 0.606672C0.0527954 0.631363 0.0332308 0.660697 0.0199299 0.692983C0.00662899 0.725268 -0.000131186 0.759867 1.92821e-06 0.794785V5.55625C7.31139e-05 5.59104 0.00699532 5.62547 0.0203877 5.65758C0.03378 5.68969 0.0533652 5.71884 0.0780354 5.74336C0.102706 5.76789 0.131972 5.78731 0.164156 5.80052C0.19634 5.81372 0.230809 5.82045 0.265596 5.82032H5.02707C5.06186 5.82045 5.09633 5.81372 5.12851 5.80052C5.1607 5.78731 5.18996 5.76789 5.21463 5.74337C5.2393 5.71884 5.25892 5.68969 5.27231 5.65758C5.2857 5.62547 5.29262 5.59104 5.2927 5.55625V2.38074C5.29256 2.34599 5.28558 2.31161 5.27216 2.27956C5.25874 2.24751 5.23914 2.21842 5.21448 2.19395C5.18981 2.16947 5.16057 2.1501 5.12842 2.13693C5.09627 2.12376 5.06182 2.11705 5.02707 2.11719C4.95726 2.11746 4.89037 2.14531 4.84101 2.19468C4.79164 2.24404 4.76379 2.31092 4.76352 2.38074V5.2927H0.529146V1.05834H3.43958C3.47432 1.05847 3.50874 1.05176 3.5409 1.03859C3.57305 1.02542 3.60229 1.00605 3.62696 0.981573C3.65162 0.9571 3.67124 0.928009 3.68466 0.895959C3.69809 0.86391 3.70507 0.829531 3.7052 0.794785C3.70534 0.759866 3.69854 0.725264 3.68524 0.692976C3.67194 0.660688 3.65238 0.631352 3.62769 0.60666C3.603 0.581968 3.57367 0.562408 3.54138 0.549108C3.5091 0.535808 3.4745 0.529032 3.43958 0.529169H0.265596Z" fill="#242020"/>
</svg>
