<svg width="59" height="58" viewBox="0 0 59 58" fill="none" xmlns="http://www.w3.org/2000/svg">
<path d="M58.3825 26.5081C58.7857 25.6128 58.9956 24.6254 58.9956 23.6243C58.9956 22.6231 58.7857 21.6357 58.3825 20.7404C58.0249 19.9026 48.8236 0 29.9956 0C11.1676 0 1.96629 19.9026 1.60867 20.7511C1.20551 21.6464 0.995605 22.6338 0.995605 23.635C0.995605 24.6362 1.20551 25.6236 1.60867 26.5189C4.07303 31.5969 7.40924 36.0889 11.4286 39.7407L4.14098 47.8393L8.23906 52.3933L16.3289 43.4033C19.6596 45.4206 23.3211 46.6734 27.096 47.0874V58H32.8952V47.0874C36.6722 46.6634 40.3338 45.3996 43.6623 43.3711L51.7522 52.3611L55.8502 47.807L48.5626 39.7407C52.583 36.0858 55.9192 31.59 58.3825 26.5081ZM6.79893 23.6296C6.79893 23.6296 14.5312 6.44444 29.9956 6.44444C45.4601 6.44444 53.1923 23.6296 53.1923 23.6296C53.1923 23.6296 45.4601 40.8148 29.9956 40.8148C14.5312 40.8148 6.79893 23.6296 6.79893 23.6296Z" fill="black"/>
<path d="M29.9954 34.3704C31.907 34.3704 33.7757 33.7405 35.3651 32.5603C36.9546 31.3801 38.1934 29.7026 38.9249 27.74C39.6565 25.7774 39.8479 23.6177 39.4749 21.5342C39.102 19.4507 38.1815 17.5369 36.8297 16.0348C35.478 14.5327 33.7558 13.5097 31.881 13.0953C30.0061 12.6809 28.0627 12.8936 26.2966 13.7065C24.5305 14.5195 23.021 15.8961 21.959 17.6624C20.8969 19.4287 20.3301 21.5053 20.3301 23.6297C20.3301 26.4783 21.3484 29.2102 23.161 31.2245C24.9736 33.2388 27.432 34.3704 29.9954 34.3704ZM29.9954 19.3334C30.76 19.3334 31.5075 19.5853 32.1433 20.0574C32.779 20.5295 33.2746 21.2005 33.5672 21.9855C33.8598 22.7706 33.9364 23.6344 33.7872 24.4678C33.638 25.3012 33.2698 26.0668 32.7291 26.6676C32.1884 27.2684 31.4996 27.6776 30.7496 27.8434C29.9996 28.0092 29.2223 27.9241 28.5159 27.5989C27.8094 27.2737 27.2056 26.7231 26.7808 26.0166C26.356 25.31 26.1292 24.4794 26.1292 23.6297C26.1292 22.4902 26.5366 21.3974 27.2616 20.5917C27.9866 19.786 28.97 19.3334 29.9954 19.3334Z" fill="black"/>
</svg>
