<svg width="71" height="71" viewBox="0 0 71 71" fill="none" xmlns="http://www.w3.org/2000/svg">
<path d="M70.0151 34.2865H64.8023V19.1118V8.49628H67.0364C67.4477 8.49628 67.781 8.15495 67.781 7.73405V1.63614C67.781 1.21523 67.4477 0.873901 67.0364 0.873901H49.164C48.7527 0.873901 48.4193 1.21523 48.4193 1.63614V7.73405C48.4193 8.15495 48.7527 8.49628 49.164 8.49628H51.3981V24.3774V34.2865H42.4619V19.1118V8.49628H44.6959C45.1073 8.49628 45.4406 8.15495 45.4406 7.73405V1.63614C45.4406 1.21523 45.1073 0.873901 44.6959 0.873901H26.8236C26.4124 0.873901 26.0789 1.21523 26.0789 1.63614V7.73405C26.0789 8.15495 26.4124 8.49628 26.8236 8.49628H29.0576V24.3774V34.2865H20.1215V19.1118V8.49628H22.3555C22.7667 8.49628 23.1002 8.15495 23.1002 7.73405V1.63614C23.1002 1.21523 22.7667 0.873901 22.3555 0.873901H4.48317C4.07196 0.873901 3.73849 1.21523 3.73849 1.63614V7.73405C3.73849 8.15495 4.07196 8.49628 4.48317 8.49628H6.71721V24.3774V34.2865H1.50445C1.09323 34.2865 0.759766 34.6278 0.759766 35.0487V70.1117C0.759766 70.5327 1.09323 70.8739 1.50445 70.8739H70.0151C70.4264 70.8739 70.7598 70.5327 70.7598 70.1117V35.0487C70.7598 34.6278 70.4264 34.2865 70.0151 34.2865ZM49.9087 6.97181V2.39838H66.2917V6.97181H64.0576H52.1427H49.9087ZM53.0615 24.9579C53.1223 24.9426 53.1829 24.928 53.2438 24.9118C53.3345 24.8878 53.4261 24.8617 53.517 24.8353C53.5745 24.8189 53.6318 24.8032 53.6887 24.7858C53.7886 24.7556 53.8887 24.7233 53.9891 24.6908C54.0377 24.6749 54.0865 24.66 54.1354 24.6437C54.271 24.5983 54.407 24.5504 54.5431 24.501C54.5566 24.4961 54.57 24.4917 54.5834 24.4868C54.7344 24.4318 54.885 24.3742 55.0361 24.3147C55.0798 24.2976 55.1234 24.2793 55.1669 24.2618C55.2743 24.2188 55.3811 24.1758 55.4883 24.1309C55.5452 24.1071 55.6024 24.0822 55.6591 24.0578C55.7534 24.0176 55.8478 23.9772 55.9418 23.9356C56.0035 23.9083 56.0653 23.8804 56.1269 23.8526C56.2169 23.8124 56.3064 23.772 56.3964 23.7305C56.4607 23.701 56.5246 23.6709 56.5889 23.6409C56.677 23.5997 56.7648 23.5584 56.8527 23.5165C56.9173 23.4855 56.9818 23.4544 57.0465 23.4232C57.1343 23.3807 57.2224 23.3378 57.3102 23.2945C57.375 23.2627 57.4394 23.2308 57.5043 23.1986C57.5922 23.1549 57.6799 23.1108 57.7678 23.0665C57.832 23.0341 57.8956 23.002 57.9594 22.9695C58.0498 22.9235 58.1403 22.8771 58.2307 22.8305C58.2913 22.7992 58.3519 22.7681 58.4127 22.7367C58.5077 22.6876 58.602 22.6384 58.6964 22.589C58.7528 22.5596 58.8093 22.5303 58.8657 22.5007C58.9725 22.4449 59.0789 22.389 59.1852 22.333C59.2288 22.31 59.2728 22.287 59.3164 22.264C59.4641 22.1859 59.6117 22.108 59.759 22.0301C59.9248 21.9425 60.0913 21.8545 60.2586 21.7665C60.3119 21.7382 60.3663 21.71 60.42 21.6816C60.5441 21.6164 60.6683 21.5514 60.7927 21.4865C60.8537 21.4546 60.9143 21.4228 60.9757 21.3911C61.1126 21.3199 61.2496 21.2493 61.3868 21.1793C61.4271 21.1586 61.4675 21.1377 61.5079 21.1171C61.6817 21.0285 61.8553 20.9412 62.0287 20.8552C62.0711 20.834 62.1134 20.8137 62.1559 20.7927C62.2884 20.7276 62.4201 20.6634 62.5517 20.6003C62.6085 20.5732 62.6652 20.5465 62.7217 20.5198C62.848 20.4602 62.9734 20.402 63.0988 20.3447C63.1484 20.3221 63.1981 20.2989 63.2476 20.2768C63.2698 20.2668 63.2921 20.2576 63.314 20.2477V35.0487V51.9734C63.314 56.1717 61.3653 58.6781 58.1012 58.6781C57.6872 58.6781 57.2952 58.6391 56.926 58.5621C54.3421 58.0239 52.8874 55.6326 52.8874 51.8179V35.0487V25.0019C52.9454 24.9884 53.0034 24.9724 53.0615 24.9579ZM52.8876 23.4317V8.49628H63.313V18.5923C63.2945 18.5999 63.2757 18.6084 63.2573 18.6162C63.1856 18.6462 63.1134 18.678 63.0416 18.7089C62.9268 18.7585 62.8118 18.808 62.6967 18.8595C62.6191 18.8943 62.5415 18.93 62.4637 18.9655C62.3529 19.0162 62.2421 19.0673 62.131 19.1196C62.0515 19.1573 61.9719 19.1952 61.8921 19.2335C61.7819 19.2864 61.6718 19.3397 61.5612 19.394C61.4816 19.433 61.4021 19.4722 61.3223 19.5117C61.2098 19.5676 61.0975 19.624 60.9851 19.6809C60.9076 19.7199 60.8311 19.7588 60.7539 19.7983C60.6369 19.8582 60.52 19.9186 60.403 19.9791C60.3308 20.0166 60.2586 20.0536 60.1865 20.0913C60.0577 20.1584 59.9291 20.2258 59.8007 20.2933C59.7413 20.3245 59.6816 20.3556 59.6223 20.3869C59.4393 20.4832 59.2568 20.5797 59.0751 20.6759C58.939 20.7479 58.8027 20.82 58.6661 20.892C58.6197 20.9165 58.5734 20.9407 58.5269 20.9651C58.4311 21.0154 58.3361 21.0657 58.2405 21.1157C58.1845 21.145 58.1286 21.1741 58.0726 21.2034C57.9874 21.2479 57.902 21.2924 57.8163 21.3368C57.7557 21.3684 57.6952 21.3996 57.6343 21.4309C57.5518 21.4734 57.4694 21.5158 57.3869 21.5578C57.3265 21.5888 57.266 21.6196 57.2055 21.6502C57.1209 21.6931 57.0363 21.7356 56.9517 21.7778C56.8938 21.8068 56.8359 21.8359 56.7779 21.8647C56.6849 21.9109 56.5918 21.9562 56.4987 22.0015C56.4501 22.0252 56.4013 22.0493 56.3527 22.0728C56.2135 22.1399 56.0748 22.2061 55.9357 22.2708C55.9028 22.2862 55.8705 22.3007 55.8376 22.3158C55.7302 22.3655 55.6232 22.4148 55.5161 22.4628C55.4636 22.4863 55.4119 22.5088 55.3593 22.5318C55.2716 22.5706 55.1839 22.609 55.0963 22.6463C55.0393 22.6707 54.9824 22.6945 54.9255 22.7183C54.8428 22.7529 54.7607 22.787 54.6784 22.8203C54.6197 22.8439 54.5619 22.8671 54.5034 22.8899C54.4216 22.9221 54.3401 22.9535 54.2587 22.9841C54.2015 23.0058 54.1443 23.0274 54.0873 23.0483C54.003 23.0793 53.9182 23.1088 53.8344 23.1383C53.7816 23.1564 53.7294 23.1753 53.6768 23.1927C53.576 23.2265 53.4757 23.2584 53.3758 23.2895C53.3411 23.3003 53.3055 23.3122 53.2711 23.3227C53.1424 23.3616 53.0146 23.3977 52.8876 23.4317ZM27.5683 6.97181V2.39838H43.9513V6.97181H41.7172H29.8023H27.5683ZM40.9168 18.6162C40.8452 18.6462 40.773 18.678 40.7012 18.7089C40.5863 18.7585 40.4714 18.808 40.3559 18.8595C40.2783 18.8943 40.2009 18.93 40.1231 18.9655C40.0126 19.0162 39.9018 19.0673 39.7904 19.1196C39.7107 19.1573 39.6314 19.1952 39.5515 19.2335C39.4415 19.2864 39.3313 19.3397 39.2206 19.394C39.1411 19.433 39.0615 19.4722 38.9817 19.5117C38.8693 19.5676 38.757 19.624 38.6445 19.6809C38.5672 19.7199 38.4905 19.7588 38.4131 19.7983C38.2963 19.8582 38.1794 19.9186 38.0625 19.9791C37.9905 20.0166 37.918 20.0536 37.8459 20.0913C37.7174 20.1584 37.5884 20.2258 37.4602 20.2933C37.4009 20.3245 37.341 20.3556 37.2817 20.3869C37.0987 20.4832 36.9166 20.5797 36.7346 20.6759C36.5984 20.7479 36.4621 20.82 36.3256 20.892C36.279 20.9167 36.2317 20.9413 36.1853 20.966C36.0904 21.0159 35.996 21.0656 35.9014 21.1153C35.8447 21.145 35.7879 21.1746 35.7315 21.2042C35.6466 21.2487 35.5612 21.2929 35.4763 21.3369C35.4159 21.3685 35.3553 21.3998 35.2942 21.431C35.2118 21.4735 35.1293 21.5159 35.0468 21.558C34.9863 21.5889 34.9259 21.6197 34.8654 21.6504C34.7807 21.6934 34.6958 21.7359 34.611 21.7783C34.5534 21.8071 34.4957 21.8361 34.4381 21.8646C34.3435 21.9115 34.249 21.9576 34.1544 22.0036C34.1075 22.0265 34.0604 22.0498 34.0135 22.0725C33.8738 22.1399 33.7342 22.2062 33.5948 22.2713C33.5639 22.2858 33.5329 22.2997 33.5019 22.314C33.3929 22.3644 33.2837 22.4144 33.175 22.4632C33.1239 22.4861 33.0728 22.5082 33.0219 22.5308C32.9328 22.5701 32.8437 22.6091 32.7548 22.6471C32.6991 22.671 32.6436 22.6942 32.5879 22.7174C32.5037 22.7526 32.4197 22.7873 32.3359 22.8212C32.2788 22.8442 32.2218 22.8669 32.165 22.8893C32.0818 22.9221 31.9987 22.954 31.9159 22.9852C31.8602 23.0063 31.8045 23.0273 31.7491 23.0477C31.6621 23.0796 31.5754 23.1101 31.4889 23.1401C31.4387 23.1575 31.3883 23.1755 31.3384 23.1922C31.233 23.2276 31.1281 23.261 31.0236 23.2935C30.9932 23.3029 30.9627 23.3133 30.9324 23.3224C30.8035 23.3615 30.6752 23.3977 30.5476 23.4319V8.49628H40.9725V18.5923C40.9541 18.5999 40.9353 18.6084 40.9168 18.6162ZM40.9724 20.2479V35.0487V51.9734C40.9724 56.1717 39.0237 58.6781 35.7596 58.6781C35.3456 58.6781 34.9534 58.6391 34.5845 58.5621C32.0017 58.0239 30.547 55.6326 30.547 51.8179V35.0487V25.0019C30.6048 24.9884 30.6627 24.9725 30.7207 24.958C30.7816 24.9428 30.8425 24.928 30.9037 24.9117C30.994 24.8876 31.0847 24.8617 31.1754 24.8356C31.2331 24.819 31.2908 24.803 31.3487 24.7855C31.4476 24.7556 31.5468 24.7236 31.646 24.6914C31.6957 24.6752 31.7455 24.6602 31.7954 24.6434C31.9276 24.599 32.06 24.5524 32.1927 24.5044C32.2097 24.4981 32.2266 24.4926 32.2435 24.4864C32.3938 24.4315 32.5442 24.374 32.695 24.3149C32.7411 24.2967 32.7874 24.2772 32.8336 24.2588C32.9379 24.217 33.042 24.1749 33.1465 24.1313C33.2058 24.1065 33.2654 24.0806 33.3248 24.0551C33.4166 24.0159 33.5083 23.9767 33.6002 23.9362C33.6639 23.908 33.7278 23.8792 33.7917 23.8504C33.8791 23.811 33.9667 23.7715 34.0543 23.7313C34.1204 23.7008 34.1866 23.6699 34.2527 23.6389C34.3383 23.5988 34.424 23.5586 34.5096 23.5176C34.5766 23.4855 34.6435 23.4534 34.7104 23.4209C34.7954 23.3796 34.8804 23.3383 34.9653 23.2964C35.0327 23.2633 35.1 23.2299 35.1673 23.1964C35.2525 23.1541 35.3374 23.1114 35.4223 23.0685C35.4886 23.0349 35.5553 23.0015 35.6216 22.9677C35.7087 22.9233 35.7958 22.8787 35.8829 22.8338C35.9471 22.8008 36.011 22.7678 36.0752 22.7347C36.1652 22.6881 36.2553 22.6411 36.3452 22.5943C36.406 22.5625 36.4671 22.5308 36.5283 22.4989C36.6269 22.4472 36.7252 22.3954 36.8235 22.3436C36.8756 22.3163 36.927 22.2891 36.9791 22.2618C37.1252 22.1846 37.2718 22.1073 37.4174 22.03C37.5865 21.9406 37.756 21.851 37.9259 21.7615C37.9725 21.737 38.0187 21.7127 38.0653 21.6883C38.1973 21.619 38.3291 21.5499 38.4612 21.481C38.5167 21.452 38.5721 21.4229 38.6278 21.3941C38.7718 21.3194 38.9159 21.2452 39.0596 21.1715C39.0937 21.154 39.1284 21.1365 39.1624 21.1186C39.3381 21.0292 39.5133 20.9409 39.6884 20.8541C39.7285 20.8343 39.7682 20.8151 39.8081 20.7955C39.9428 20.7291 40.0777 20.6639 40.2113 20.5996C40.2669 20.573 40.3224 20.5468 40.3777 20.5206C40.5049 20.4605 40.6315 20.4018 40.7579 20.3442C40.8071 20.322 40.8562 20.2991 40.9049 20.2771C40.9278 20.2671 40.9502 20.2579 40.9724 20.2479ZM5.22785 6.97181V2.39838H21.6108V6.97181H19.3768H7.46189H5.22785ZM18.5767 18.6161C18.5045 18.6462 18.4319 18.6781 18.3596 18.7094C18.2449 18.7586 18.1303 18.808 18.0154 18.8595C17.9378 18.8943 17.86 18.93 17.7823 18.9656C17.6712 19.0164 17.5602 19.0675 17.449 19.1199C17.3699 19.1571 17.2906 19.1949 17.2116 19.2329C17.1001 19.2864 16.9889 19.3402 16.8773 19.3949C16.7991 19.4333 16.721 19.4718 16.6426 19.5108C16.5282 19.5676 16.4141 19.6251 16.2998 19.6829C16.2248 19.7209 16.1499 19.7587 16.075 19.7969C15.9542 19.8587 15.8337 19.9209 15.7133 19.9834C15.645 20.0186 15.5768 20.0538 15.5086 20.0893C15.3716 20.1607 15.2349 20.2325 15.0981 20.3043C15.0474 20.3309 14.9966 20.3575 14.9461 20.384C14.7613 20.4814 14.5769 20.5788 14.3934 20.6759C14.2571 20.748 14.1205 20.8202 13.9838 20.8923C13.9379 20.9165 13.8921 20.9406 13.8462 20.9647C13.7506 21.0151 13.6548 21.0654 13.559 21.1157C13.5038 21.1447 13.4485 21.1735 13.3933 21.2023C13.306 21.2479 13.2187 21.2935 13.1313 21.3388C13.0732 21.3688 13.0151 21.3988 12.9572 21.4287C12.8723 21.4726 12.7873 21.5161 12.7024 21.5595C12.6437 21.5894 12.585 21.6194 12.5263 21.6492C12.439 21.6934 12.3519 21.7371 12.2646 21.7807C12.2095 21.8083 12.1546 21.8359 12.0995 21.8634C12.0009 21.9123 11.9023 21.9603 11.8038 22.0083C11.7605 22.0294 11.7171 22.0509 11.6738 22.0717C11.5331 22.1396 11.3926 22.2064 11.2523 22.2719C11.226 22.2843 11.1996 22.296 11.1731 22.3082C11.0591 22.3609 10.9454 22.4131 10.8319 22.464C10.7832 22.4859 10.7348 22.5068 10.6862 22.5282C10.5948 22.5686 10.5033 22.6087 10.4122 22.6477C10.3577 22.671 10.3034 22.6936 10.2491 22.7163C10.1636 22.7521 10.0783 22.7873 9.99306 22.8218C9.93721 22.8444 9.88151 22.8665 9.82566 22.8886C9.74106 22.9219 9.65647 22.9544 9.57217 22.9863C9.51766 23.0069 9.4633 23.0274 9.40894 23.0473C9.32047 23.0796 9.23245 23.1105 9.14457 23.1412C9.09557 23.1581 9.04657 23.1756 8.99787 23.1921C8.89094 23.2279 8.7846 23.2618 8.67855 23.2947C8.64951 23.3037 8.62017 23.3137 8.59128 23.3224C8.46215 23.3615 8.33377 23.3979 8.20613 23.432V8.49628H18.6321V18.5923C18.6136 18.5999 18.5952 18.6083 18.5767 18.6161ZM18.6318 20.248V35.0487V51.9734C18.6318 56.1717 16.6831 58.6781 13.419 58.6781C13.005 58.6781 12.6129 58.6391 12.2439 58.5621C9.66123 58.0239 8.20657 55.6326 8.20657 51.8179V35.0487V25.0019C8.26451 24.9884 8.32274 24.9724 8.38068 24.9579C8.4413 24.9426 8.50191 24.928 8.56283 24.9118C8.65368 24.8878 8.74483 24.8617 8.83583 24.8353C8.89317 24.8189 8.95036 24.8032 9.0077 24.7858C9.10764 24.7556 9.20802 24.7233 9.30826 24.6906C9.35696 24.6748 9.40551 24.66 9.45421 24.6437C9.59094 24.5978 9.72811 24.5498 9.86528 24.4999C9.87764 24.4955 9.88985 24.4914 9.90206 24.487C10.0529 24.4318 10.2041 24.3742 10.3554 24.3146C10.3974 24.2981 10.4394 24.2804 10.4814 24.2636C10.5901 24.22 10.699 24.1761 10.808 24.1306C10.8634 24.1074 10.9187 24.0831 10.9741 24.0597C11.0702 24.0187 11.1662 23.9775 11.2623 23.9353C11.3222 23.9089 11.382 23.8818 11.4419 23.8548C11.534 23.8135 11.626 23.772 11.718 23.7296C11.7797 23.7013 11.8414 23.6724 11.903 23.6436C11.9936 23.6013 12.0841 23.5586 12.1747 23.5153C12.2369 23.4855 12.2992 23.4555 12.3614 23.4255C12.4521 23.3814 12.5429 23.3372 12.6337 23.2925C12.6949 23.2624 12.7563 23.2322 12.8175 23.2015C12.91 23.1555 13.0023 23.1092 13.0947 23.0625C13.1538 23.0326 13.2129 23.0027 13.272 22.9727C13.3684 22.9236 13.4646 22.8742 13.5608 22.8247C13.6158 22.7963 13.6707 22.7683 13.7256 22.7398C13.8291 22.6863 13.9324 22.6324 14.0358 22.5785C14.0829 22.5538 14.1299 22.5294 14.177 22.5049C14.2975 22.4417 14.4175 22.3785 14.5377 22.3152C14.5678 22.2994 14.5977 22.2836 14.6277 22.2678C14.7776 22.1887 14.9275 22.1096 15.0769 22.0304C15.2426 21.9428 15.4093 21.8548 15.5761 21.7669C15.6282 21.7394 15.6806 21.712 15.7329 21.6844C15.8607 21.6171 15.9888 21.5501 16.1169 21.4833C16.1747 21.4531 16.2324 21.4231 16.2902 21.393C16.4305 21.3202 16.571 21.2479 16.7113 21.176C16.7487 21.1569 16.7862 21.1374 16.8236 21.1183C16.9986 21.0292 17.1734 20.9412 17.348 20.8546C17.3883 20.8346 17.4284 20.8153 17.4686 20.7955C17.603 20.7293 17.7371 20.664 17.8709 20.6C17.9267 20.5733 17.9824 20.547 18.0381 20.5206C18.165 20.4607 18.2913 20.4021 18.4173 20.3447C18.4666 20.3221 18.5161 20.2992 18.5652 20.2771C18.5876 20.2671 18.6095 20.2579 18.6318 20.248ZM69.2704 69.3494H2.24913V35.8109H6.71721V51.8179C6.71721 58 10.1794 60.2026 13.4193 60.2026C16.6593 60.2026 20.1215 58.0406 20.1215 51.9734V35.8109H29.0576V51.8179C29.0576 58 32.5198 60.2026 35.7598 60.2026C38.9999 60.2026 42.4619 58.0406 42.4619 51.9734V35.8109H51.3981V51.8179C51.3981 58 54.8601 60.2026 58.1002 60.2026C61.3403 60.2026 64.8023 58.0406 64.8023 51.9734V35.8109H69.2704V69.3494Z" fill="black"/>
<path d="M11.9297 52.5802C11.7331 52.5802 11.541 52.6608 11.4025 52.8028C11.264 52.9458 11.1851 53.1412 11.1851 53.3424C11.1851 53.5423 11.264 53.7388 11.4025 53.8804C11.541 54.0237 11.7331 54.1047 11.9297 54.1047C12.1263 54.1047 12.3185 54.024 12.457 53.8804C12.5955 53.7386 12.6744 53.5418 12.6744 53.3424C12.6744 53.1412 12.5955 52.9458 12.457 52.8028C12.3185 52.6608 12.1263 52.5802 11.9297 52.5802Z" fill="black"/>
<path d="M14.9087 49.5311C14.7121 49.5311 14.5215 49.6118 14.3815 49.7537C14.243 49.8967 14.1641 50.0921 14.1641 50.2934C14.1641 50.4932 14.243 50.6897 14.3815 50.833C14.52 50.975 14.7121 51.0556 14.9087 51.0556C15.1053 51.0556 15.296 50.975 15.4345 50.833C15.5745 50.6897 15.6534 50.4943 15.6534 50.2934C15.6534 50.0921 15.5745 49.8956 15.4345 49.7537C15.296 49.6118 15.1038 49.5311 14.9087 49.5311Z" fill="black"/>
<path d="M11.9297 46.4822C11.7331 46.4822 11.541 46.5628 11.4025 46.7048C11.264 46.8477 11.1851 47.0432 11.1851 47.2444C11.1851 47.4453 11.264 47.6408 11.4025 47.7824C11.5425 47.926 11.7346 48.0067 11.9297 48.0067C12.1263 48.0067 12.317 47.926 12.457 47.7824C12.5955 47.6406 12.6744 47.4453 12.6744 47.2444C12.6744 47.0432 12.5955 46.8477 12.457 46.7048C12.3185 46.5628 12.1263 46.4822 11.9297 46.4822Z" fill="black"/>
<path d="M14.9087 43.4333C14.7121 43.4333 14.52 43.514 14.3815 43.6559C14.243 43.7989 14.1641 43.9957 14.1641 44.1956C14.1641 44.3954 14.243 44.592 14.3815 44.7353C14.52 44.8772 14.7121 44.9578 14.9087 44.9578C15.1053 44.9578 15.296 44.8772 15.436 44.7353C15.5745 44.592 15.6534 44.3954 15.6534 44.1956C15.6534 43.9957 15.5745 43.7989 15.436 43.6559C15.296 43.514 15.1053 43.4333 14.9087 43.4333Z" fill="black"/>
<path d="M11.9297 40.3844C11.7331 40.3844 11.541 40.465 11.4025 40.6087C11.264 40.7503 11.1851 40.9454 11.1851 41.1466C11.1851 41.3465 11.264 41.543 11.4025 41.6863C11.5425 41.8282 11.7331 41.9089 11.9297 41.9089C12.1248 41.9089 12.317 41.8282 12.4555 41.6863C12.5955 41.543 12.6744 41.3465 12.6744 41.1466C12.6744 40.9454 12.5955 40.7489 12.457 40.6087C12.3185 40.465 12.1263 40.3844 11.9297 40.3844Z" fill="black"/>
<path d="M14.9087 37.3354C14.7121 37.3354 14.5215 37.4161 14.383 37.558C14.243 37.701 14.1641 37.8965 14.1641 38.0977C14.1641 38.2986 14.243 38.4941 14.383 38.6357C14.52 38.7791 14.7121 38.8599 14.9087 38.8599C15.1053 38.8599 15.296 38.7793 15.436 38.6357C15.5745 38.4939 15.6534 38.2971 15.6534 38.0977C15.6534 37.8978 15.5745 37.701 15.436 37.558C15.296 37.4161 15.1038 37.3354 14.9087 37.3354Z" fill="black"/>
<path d="M11.9297 34.2864C11.7331 34.2864 11.541 34.3672 11.4025 34.5105C11.264 34.6523 11.1851 34.8489 11.1851 35.0486C11.1851 35.2483 11.264 35.445 11.4025 35.5883C11.5425 35.7301 11.7331 35.8109 11.9297 35.8109C12.1263 35.8109 12.317 35.7301 12.457 35.5883C12.5955 35.445 12.6744 35.2483 12.6744 35.0486C12.6744 34.8474 12.5955 34.6523 12.457 34.5105C12.3185 34.3672 12.1263 34.2864 11.9297 34.2864Z" fill="black"/>
<path d="M14.9087 31.2374C14.7121 31.2374 14.52 31.3182 14.383 31.46C14.243 31.6018 14.1641 31.7984 14.1641 31.9997C14.1641 32.2009 14.243 32.3976 14.383 32.5393C14.5215 32.6811 14.7136 32.7619 14.9087 32.7619C15.1038 32.7619 15.296 32.6811 15.436 32.5393C15.5745 32.3976 15.6534 32.2009 15.6534 31.9997C15.6534 31.7984 15.5745 31.6033 15.436 31.46C15.2975 31.3182 15.1053 31.2374 14.9087 31.2374Z" fill="black"/>
<path d="M11.9297 28.1886C11.7331 28.1886 11.541 28.2694 11.4025 28.4112C11.264 28.5529 11.1851 28.7496 11.1851 28.9508C11.1851 29.1521 11.264 29.3487 11.4025 29.4905C11.5425 29.6323 11.7331 29.7131 11.9297 29.7131C12.1263 29.7131 12.317 29.6323 12.457 29.4905C12.5955 29.3472 12.6744 29.1521 12.6744 28.9508C12.6744 28.7496 12.5955 28.5545 12.457 28.4112C12.3185 28.2694 12.1263 28.1886 11.9297 28.1886Z" fill="black"/>
<path d="M14.9087 25.1396C14.7121 25.1396 14.52 25.2204 14.3815 25.3637C14.243 25.504 14.1641 25.7007 14.1641 25.9019C14.1641 26.1031 14.243 26.2998 14.3815 26.4416C14.5215 26.5833 14.7121 26.6641 14.9087 26.6641C15.1053 26.6641 15.296 26.5833 15.436 26.4416C15.5745 26.2998 15.6534 26.1031 15.6534 25.9019C15.6534 25.7007 15.5745 25.504 15.436 25.3637C15.2975 25.2204 15.1053 25.1396 14.9087 25.1396Z" fill="black"/>
<path d="M34.2706 52.5802C34.074 52.5802 33.8818 52.6608 33.7433 52.8028C33.6048 52.9458 33.5259 53.1412 33.5259 53.3424C33.5259 53.5423 33.6048 53.7388 33.7433 53.8804C33.8818 54.0234 34.074 54.1047 34.2706 54.1047C34.4672 54.1047 34.6593 54.024 34.7978 53.8804C34.9363 53.7386 35.0152 53.5418 35.0152 53.3424C35.0152 53.1412 34.9363 52.9458 34.7978 52.8028C34.6593 52.6608 34.4672 52.5802 34.2706 52.5802Z" fill="black"/>
<path d="M37.2491 49.5311C37.0525 49.5311 36.8615 49.6118 36.7218 49.7537C36.5832 49.8956 36.5044 50.0921 36.5044 50.2934C36.5044 50.4943 36.5832 50.6897 36.7218 50.833C36.8605 50.975 37.0525 51.0556 37.2491 51.0556C37.4443 51.0556 37.6363 50.975 37.7763 50.833C37.915 50.6897 37.9938 50.4932 37.9938 50.2934C37.9938 50.0921 37.915 49.8956 37.7763 49.7537C37.6363 49.6118 37.4443 49.5311 37.2491 49.5311Z" fill="black"/>
<path d="M34.2706 46.4822C34.074 46.4822 33.8818 46.5628 33.7433 46.7048C33.6048 46.8477 33.5259 47.0432 33.5259 47.2444C33.5259 47.4453 33.6048 47.6408 33.7433 47.7824C33.8833 47.9254 34.0755 48.0067 34.2706 48.0067C34.4657 48.0067 34.6578 47.926 34.7963 47.7824C34.9363 47.6422 35.0152 47.4453 35.0152 47.2444C35.0152 47.0432 34.9363 46.8467 34.7963 46.7048C34.6593 46.5628 34.4672 46.4822 34.2706 46.4822Z" fill="black"/>
<path d="M37.2491 43.4333C37.0525 43.4333 36.8615 43.514 36.7218 43.6559C36.5832 43.7989 36.5044 43.9944 36.5044 44.1956C36.5044 44.3965 36.5832 44.592 36.7218 44.7353C36.8615 44.8772 37.0525 44.9578 37.2491 44.9578C37.4454 44.9578 37.6363 44.8772 37.7747 44.7353C37.9144 44.592 37.9938 44.3954 37.9938 44.1956C37.9938 43.9957 37.915 43.7989 37.7747 43.6559C37.6363 43.514 37.4454 43.4333 37.2491 43.4333Z" fill="black"/>
<path d="M34.2706 40.3844C34.074 40.3844 33.8818 40.465 33.7433 40.6087C33.6048 40.7503 33.5259 40.9454 33.5259 41.1466C33.5259 41.3465 33.6048 41.543 33.7433 41.6863C33.8833 41.8282 34.074 41.9089 34.2706 41.9089C34.4672 41.9089 34.6578 41.8282 34.7963 41.6863C34.9363 41.543 35.0152 41.3465 35.0152 41.1466C35.0152 40.9454 34.9363 40.7489 34.7978 40.6087C34.6593 40.465 34.4672 40.3844 34.2706 40.3844Z" fill="black"/>
<path d="M37.2491 37.3354C37.0538 37.3354 36.8615 37.4161 36.7218 37.558C36.5832 37.701 36.5044 37.8978 36.5044 38.0977C36.5044 38.2975 36.5832 38.4941 36.7218 38.6357C36.8615 38.7791 37.0525 38.8599 37.2491 38.8599C37.4454 38.8599 37.6363 38.7793 37.7747 38.6357C37.9147 38.4941 37.9938 38.2986 37.9938 38.0977C37.9938 37.8965 37.915 37.701 37.7747 37.558C37.6363 37.4161 37.4443 37.3354 37.2491 37.3354Z" fill="black"/>
<path d="M34.2706 34.2864C34.074 34.2864 33.8818 34.3672 33.7448 34.5105C33.6048 34.6507 33.5259 34.8474 33.5259 35.0486C33.5259 35.2498 33.6048 35.4465 33.7448 35.5883C33.8833 35.7301 34.0755 35.8109 34.2706 35.8109C34.4657 35.8109 34.6578 35.7301 34.7978 35.5883C34.9363 35.445 35.0152 35.2483 35.0152 35.0486C35.0152 34.8489 34.9363 34.6523 34.7978 34.5105C34.6593 34.3672 34.4672 34.2864 34.2706 34.2864Z" fill="black"/>
<path d="M37.2491 31.2374C37.0525 31.2374 36.8605 31.3182 36.7218 31.4615C36.5832 31.6033 36.5044 31.7984 36.5044 31.9997C36.5044 32.2009 36.5832 32.3976 36.7218 32.5393C36.8615 32.6811 37.0538 32.7619 37.2491 32.7619C37.4443 32.7619 37.6363 32.6811 37.7747 32.5393C37.9144 32.3976 37.9938 32.2009 37.9938 31.9997C37.9938 31.7984 37.915 31.6018 37.7747 31.4615C37.6376 31.3182 37.4454 31.2374 37.2491 31.2374Z" fill="black"/>
<path d="M34.2706 28.1886C34.074 28.1886 33.8818 28.2694 33.7448 28.4112C33.6048 28.5529 33.5259 28.7496 33.5259 28.9508C33.5259 29.1521 33.6048 29.3487 33.7448 29.489C33.8818 29.6323 34.074 29.7131 34.2706 29.7131C34.4672 29.7131 34.6593 29.6323 34.7978 29.489C34.9363 29.3472 35.0152 29.1521 35.0152 28.9508C35.0152 28.7511 34.9363 28.5545 34.7978 28.4112C34.6578 28.2694 34.4672 28.1886 34.2706 28.1886Z" fill="black"/>
<path d="M37.2491 25.1396C37.0538 25.1396 36.8615 25.2204 36.7218 25.3622C36.5832 25.5055 36.5044 25.7007 36.5044 25.9019C36.5044 26.1031 36.5832 26.2982 36.7218 26.4416C36.8615 26.5833 37.0538 26.6641 37.2491 26.6641C37.4443 26.6641 37.6363 26.5833 37.7747 26.4416C37.9144 26.2998 37.9938 26.1031 37.9938 25.9019C37.9938 25.7007 37.915 25.504 37.7747 25.3622C37.6363 25.2204 37.4443 25.1396 37.2491 25.1396Z" fill="black"/>
<path d="M56.6109 54.1047C56.8073 54.1047 56.9981 54.024 57.1381 53.8804C57.2766 53.7386 57.3556 53.5418 57.3556 53.3424C57.3556 53.1426 57.2766 52.9458 57.1381 52.8028C56.9981 52.6608 56.8073 52.5802 56.6109 52.5802C56.4143 52.5802 56.2235 52.6608 56.0837 52.8028C55.9451 52.9447 55.8662 53.1412 55.8662 53.3424C55.8662 53.5434 55.9451 53.7388 56.0837 53.8804C56.2235 54.0237 56.4143 54.1047 56.6109 54.1047Z" fill="black"/>
<path d="M59.5894 51.0556C59.7845 51.0556 59.9766 50.975 60.1152 50.833C60.2549 50.6897 60.3341 50.4943 60.3341 50.2934C60.3341 50.0921 60.2552 49.8956 60.1152 49.7537C59.978 49.6118 59.7859 49.5311 59.5894 49.5311C59.3928 49.5311 59.2007 49.6118 59.0622 49.7537C58.9237 49.8956 58.8447 50.0921 58.8447 50.2934C58.8447 50.4943 58.9237 50.6897 59.0622 50.833C59.202 50.975 59.3928 51.0556 59.5894 51.0556Z" fill="black"/>
<path d="M56.6109 48.0067C56.8073 48.0067 56.9981 47.926 57.1381 47.7841C57.2766 47.6408 57.3556 47.4443 57.3556 47.2444C57.3556 47.0446 57.2766 46.8477 57.1381 46.7048C56.9981 46.5628 56.8073 46.4822 56.6109 46.4822C56.4156 46.4822 56.2235 46.5628 56.0837 46.7048C55.9451 46.8467 55.8662 47.0432 55.8662 47.2444C55.8662 47.4443 55.9451 47.6408 56.0837 47.7841C56.2235 47.926 56.4143 48.0067 56.6109 48.0067Z" fill="black"/>
<path d="M59.5894 44.9578C59.7859 44.9578 59.978 44.8772 60.1152 44.7336C60.2549 44.5918 60.3341 44.3965 60.3341 44.1956C60.3341 43.9944 60.2552 43.7979 60.1152 43.6559C59.9762 43.514 59.7859 43.4333 59.5894 43.4333C59.3928 43.4333 59.2007 43.514 59.0622 43.6559C58.9237 43.7979 58.8447 43.9944 58.8447 44.1956C58.8447 44.3965 58.9237 44.592 59.0622 44.7336C59.2007 44.8772 59.3928 44.9578 59.5894 44.9578Z" fill="black"/>
<path d="M56.6109 41.9089C56.806 41.9089 56.9981 41.8282 57.1381 41.6863C57.2766 41.543 57.3556 41.3465 57.3556 41.1466C57.3556 40.9468 57.2766 40.75 57.1381 40.607C56.9981 40.465 56.8073 40.3844 56.6109 40.3844C56.4143 40.3844 56.2235 40.465 56.0837 40.607C55.9451 40.7489 55.8662 40.9454 55.8662 41.1466C55.8662 41.3465 55.9451 41.543 56.0837 41.6863C56.2235 41.8282 56.4156 41.9089 56.6109 41.9089Z" fill="black"/>
<path d="M59.5894 38.8599C59.7859 38.8599 59.9766 38.7793 60.1152 38.6374C60.2549 38.4941 60.3341 38.2986 60.3341 38.0977C60.3341 37.8965 60.2552 37.701 60.1152 37.558C59.978 37.4161 59.7859 37.3354 59.5894 37.3354C59.3928 37.3354 59.2007 37.4161 59.0622 37.558C58.9237 37.701 58.8447 37.8965 58.8447 38.0977C58.8447 38.2986 58.9237 38.4941 59.0622 38.6374C59.202 38.7793 59.3928 38.8599 59.5894 38.8599Z" fill="black"/>
<path d="M56.6109 35.8109C56.806 35.8109 56.9981 35.7301 57.1381 35.5883C57.2766 35.445 57.3556 35.2483 57.3556 35.0486C57.3556 34.8489 57.2766 34.6523 57.1381 34.509C56.9981 34.3672 56.806 34.2864 56.6109 34.2864C56.4156 34.2864 56.2235 34.3672 56.0837 34.509C55.9451 34.6523 55.8662 34.8474 55.8662 35.0486C55.8662 35.2498 55.9451 35.445 56.0837 35.5883C56.2235 35.7301 56.4156 35.8109 56.6109 35.8109Z" fill="black"/>
<path d="M59.5894 32.7619C59.7859 32.7619 59.978 32.6811 60.1152 32.5393C60.2549 32.3976 60.3341 32.2009 60.3341 31.9997C60.3341 31.7984 60.2552 31.6018 60.1152 31.4615C59.978 31.3182 59.7859 31.2374 59.5894 31.2374C59.3928 31.2374 59.2007 31.3182 59.0622 31.4615C58.9237 31.6018 58.8447 31.7984 58.8447 31.9997C58.8447 32.2009 58.9237 32.3976 59.0622 32.5393C59.2007 32.6811 59.3928 32.7619 59.5894 32.7619Z" fill="black"/>
<path d="M56.6109 29.7131C56.8073 29.7131 56.9981 29.6323 57.1381 29.489C57.2766 29.3472 57.3556 29.1521 57.3556 28.9508C57.3556 28.7511 57.2766 28.5545 57.1381 28.4112C56.9981 28.2694 56.806 28.1886 56.6109 28.1886C56.4156 28.1886 56.2235 28.2694 56.0837 28.4112C55.9451 28.5545 55.8662 28.7496 55.8662 28.9508C55.8662 29.1521 55.9451 29.3487 56.0837 29.489C56.2235 29.6323 56.4143 29.7131 56.6109 29.7131Z" fill="black"/>
<path d="M59.5894 26.6641C59.7859 26.6641 59.9766 26.5833 60.1152 26.4416C60.2549 26.2982 60.3341 26.1031 60.3341 25.9019C60.3341 25.7007 60.2552 25.5055 60.1152 25.3622C59.9762 25.2204 59.7859 25.1396 59.5894 25.1396C59.3928 25.1396 59.202 25.2204 59.0622 25.3622C58.9237 25.5055 58.8447 25.7007 58.8447 25.9019C58.8447 26.1031 58.9237 26.2982 59.0622 26.4416C59.202 26.5833 59.3928 26.6641 59.5894 26.6641Z" fill="black"/>
</svg>
