<svg width="86" height="95" viewBox="0 0 86 95" fill="none" xmlns="http://www.w3.org/2000/svg">
<path fill-rule="evenodd" clip-rule="evenodd" d="M30.4369 6.59281C30.3857 6.64399 30.2982 6.60774 30.2982 6.53537V6.21455C30.2982 6.02549 30.0711 5.9292 29.9352 6.06066L29.4505 6.52952L5.15235 30.0364C4.95388 30.2284 4.94864 30.545 5.14064 30.7434V30.7434C5.33265 30.9419 5.64919 30.9471 5.84765 30.7551L27.6029 9.70838C28.2375 9.09446 29.2982 9.54415 29.2982 10.4271V88.8889V88.8889C29.2982 89.165 29.522 89.3889 29.7982 89.3889V89.3889H80.1406V89.3889C80.4168 89.3889 80.6406 89.165 80.6406 88.8889V88.8889V49.6313C80.6406 49.3552 80.4168 49.1313 80.1406 49.1313V49.1313C79.8645 49.1313 79.6406 49.3552 79.6406 49.6313V87.3889C79.6406 87.9412 79.1929 88.3889 78.6406 88.3889H31.2982C30.7459 88.3889 30.2982 87.9412 30.2982 87.3889V10.1677C30.2982 9.27677 31.3753 8.8306 32.0053 9.46057L52.9336 30.3889C53.1289 30.5842 53.4455 30.5842 53.6407 30.3889V30.3889C53.836 30.1937 53.836 29.8771 53.6407 29.6818L30.5517 6.59281C30.52 6.56108 30.4686 6.56108 30.4369 6.59281V6.59281Z" fill="#242020"/>
<path d="M29.4505 6.52952L25.974 2.93596L25.974 2.93596L29.4505 6.52952ZM30.5517 6.59281L27.0162 10.1283L30.5517 6.59281ZM53.6407 29.6818L57.1763 26.1463L53.6407 29.6818ZM52.9336 30.3889L56.4692 26.8534L52.9336 30.3889ZM32.0053 9.46057L28.4698 12.9961L32.0053 9.46057ZM5.84765 30.7551L9.32419 34.3487L5.84765 30.7551ZM5.15235 30.0364L8.62888 33.63L5.15235 30.0364ZM27.6029 9.70838L24.1263 6.11482L27.6029 9.70838ZM29.9352 6.06066L33.4117 9.65422L29.9352 6.06066ZM25.2982 6.21455V6.53537H35.2982V6.21455H25.2982ZM32.9271 10.1231L33.4117 9.65422L26.4586 2.46709L25.974 2.93596L32.9271 10.1231ZM8.62888 33.63L32.9271 10.1231L25.974 2.93596L1.67581 26.4429L8.62888 33.63ZM24.1263 6.11482L2.37112 27.1616L9.32419 34.3487L31.0794 13.3019L24.1263 6.11482ZM34.2982 88.8889V10.4271H24.2982V88.8889H34.2982ZM80.1406 84.3889H29.7982V94.3889H80.1406V84.3889ZM75.6406 49.6313V88.8889H85.6406V49.6313H75.6406ZM84.6406 87.3889V49.6313H74.6406V87.3889H84.6406ZM31.2982 93.3889H78.6406V83.3889H31.2982V93.3889ZM25.2982 10.1677V87.3889H35.2982V10.1677H25.2982ZM56.4692 26.8534L35.5408 5.92503L28.4698 12.9961L49.3981 33.9245L56.4692 26.8534ZM27.0162 10.1283L50.1052 33.2173L57.1763 26.1463L34.0873 3.05728L27.0162 10.1283ZM34.0873 3.05728C32.1029 1.07293 28.8857 1.07293 26.9013 3.05727L33.9724 10.1283C32.0515 12.0492 28.9371 12.0492 27.0162 10.1283L34.0873 3.05728ZM57.1763 33.9245C59.3242 31.7766 59.3242 28.2942 57.1763 26.1463L50.1052 33.2173C48.3478 31.46 48.3479 28.6107 50.1052 26.8534L57.1763 33.9245ZM49.3981 33.9245C51.546 36.0723 55.0284 36.0723 57.1763 33.9245L50.1052 26.8534C51.8626 25.096 54.7118 25.096 56.4692 26.8534L49.3981 33.9245ZM35.2982 10.1677C35.2982 13.7313 30.9896 15.516 28.4698 12.9961L35.5408 5.92503C31.761 2.14526 25.2982 4.82223 25.2982 10.1677H35.2982ZM80.1406 44.1313C77.1031 44.1313 74.6406 46.5937 74.6406 49.6313H84.6406C84.6406 52.1166 82.6259 54.1313 80.1406 54.1313V44.1313ZM80.1406 94.3889C83.1782 94.3889 85.6406 91.9264 85.6406 88.8889H75.6406C75.6406 86.4036 77.6554 84.3889 80.1406 84.3889V94.3889ZM24.2982 88.8889C24.2982 91.9264 26.7606 94.3889 29.7982 94.3889V84.3889C32.2835 84.3889 34.2982 86.4036 34.2982 88.8889H24.2982ZM31.2982 83.3889C33.5073 83.3889 35.2982 85.1797 35.2982 87.3889H25.2982C25.2982 90.7026 27.9845 93.3889 31.2982 93.3889V83.3889ZM1.54708 34.22C3.65913 36.4031 7.14106 36.4607 9.32419 34.3487L2.37112 27.1616C4.15732 25.4335 7.00617 25.4807 8.73421 27.2669L1.54708 34.22ZM74.6406 87.3889C74.6406 85.1797 76.4315 83.3889 78.6406 83.3889V93.3889C81.9543 93.3889 84.6406 90.7026 84.6406 87.3889H74.6406ZM1.67581 26.4429C-0.507327 28.5549 -0.564961 32.0368 1.54708 34.22L8.73421 27.2669C10.4622 29.0531 10.4151 31.9019 8.62888 33.63L1.67581 26.4429ZM85.6406 49.6313C85.6406 46.5937 83.1782 44.1313 80.1406 44.1313V54.1313C77.6554 54.1313 75.6406 52.1166 75.6406 49.6313H85.6406ZM25.2982 6.53537C25.2982 11.0623 30.7714 13.3293 33.9724 10.1283L26.9013 3.05727C30 -0.0413791 35.2982 2.15323 35.2982 6.53537H25.2982ZM31.0794 13.3019C28.5411 15.7576 24.2982 13.9589 24.2982 10.4271H34.2982C34.2982 5.12942 27.9339 2.4313 24.1263 6.11482L31.0794 13.3019ZM35.2982 6.21455C35.2982 1.61075 29.7674 -0.733947 26.4586 2.46709L33.4117 9.65422C30.3747 12.5924 25.2982 10.4402 25.2982 6.21455H35.2982Z" fill="#242020"/>
</svg>
